<?xml version="1.0" encoding="UTF-8"?>
<svg xmlns="http://www.w3.org/2000/svg">
	<symbol id="camera" viewBox="0 0 512 512">
		<circle cx="277.333" cy="277.333" r="85.333"/>
		<path d="M469.333 106.667H391.01c-8.552 0-16.583-3.333-22.635-9.375l-17.667-17.667C340.635 69.552 327.24 64 312.99 64h-71.313c-14.25 0-27.646 5.552-37.719 15.625l-17.667 17.667c-6.052 6.042-14.083 9.375-22.635 9.375H128V96a10.66 10.66 0 0 0-10.667-10.667H74.667A10.66 10.66 0 0 0 64 96v10.667H42.667C19.135 106.667 0 125.802 0 149.333v256C0 428.865 19.135 448 42.667 448h426.667C492.865 448 512 428.865 512 405.333v-256c0-23.531-19.135-42.666-42.667-42.666zm-341.333 96a10.66 10.66 0 0 1-10.667 10.667H74.667A10.66 10.66 0 0 1 64 202.667v-21.333a10.66 10.66 0 0 1 10.667-10.667h42.667a10.66 10.66 0 0 1 10.667 10.667v21.333zM277.333 384c-58.813 0-106.667-47.854-106.667-106.667s47.854-106.667 106.667-106.667S384 218.521 384 277.333 336.146 384 277.333 384z"/>
	</symbol>
	<symbol id="cancel" viewBox="0 0 492 492">
		<path d="M300.188 246L484.14 62.04c5.06-5.064 7.852-11.82 7.86-19.024 0-7.208-2.792-13.972-7.86-19.028L468.02 7.872C462.952 2.796 456.196.016 448.984.016c-7.2 0-13.956 2.78-19.024 7.856L246.008 191.82 62.048 7.872C56.988 2.796 50.228.016 43.02.016c-7.2 0-13.96 2.78-19.02 7.856L7.872 23.988c-10.496 10.496-10.496 27.568 0 38.052L191.828 246 7.872 429.952C2.808 435.024.02 441.78.02 448.984c0 7.204 2.788 13.96 7.852 19.028l16.124 16.116c5.06 5.072 11.824 7.856 19.02 7.856 7.208 0 13.968-2.784 19.028-7.856l183.96-183.952 183.952 183.952c5.068 5.072 11.824 7.856 19.024 7.856h.008c7.204 0 13.96-2.784 19.028-7.856l16.12-16.116c5.06-5.064 7.852-11.824 7.852-19.028 0-7.204-2.792-13.96-7.852-19.028L300.188 246z"/>
	</symbol>
	<symbol id="checked" viewBox="0 0 26 26">
		<path d="M.3 14c-.2-.2-.3-.5-.3-.7s.1-.5.3-.7l1.4-1.4c.4-.4 1-.4 1.4 0l.1.1 5.5 5.9c.2.2.5.2.7 0L22.8 3.3h.1c.4-.4 1-.4 1.4 0l1.4 1.4c.4.4.4 1 0 1.4l-16 16.6c-.2.2-.4.3-.7.3-.3 0-.5-.1-.7-.3L.5 14.3.3 14z"/>
	</symbol>
	<symbol id="date" viewBox="0 0 280 280">
		<path d="M140 60.082c-8.284 0-15 6.716-15 15v49.982H75.019c-8.284 0-15 6.716-15 15 0 8.284 6.716 15 15 15H140c8.284 0 15-6.716 15-15V75.082c0-8.284-6.716-15-15-15z"/>
		<path d="M140 0C62.804 0 0 62.804 0 140s62.804 140 140 140 140-62.804 140-140S217.196 0 140 0zm0 250c-60.654 0-110-49.346-110-110S79.346 30 140 30s110 49.346 110 110-49.346 110-110 110z"/>
	</symbol>
	<symbol id="email" viewBox="0 0 612 612">
		<path d="M306.768 346.814h.131c4.615 0 9.176-1.339 12.866-3.777l1.001-.643c.218-.142.446-.271.675-.424l11.658-9.645 278.259-229.624c-.576-.795-1.557-1.339-2.602-1.339H3.233c-.751 0-1.448.272-2.003.729l291.125 239.954c3.669 3.038 8.904 4.769 14.413 4.769zM0 133.899v340.37l208.55-168.471L0 133.899zm403.668 173.042L612 474.356V135.031l-208.332 171.91zm-66.237 54.644c-8.305 6.814-19.168 10.57-30.576 10.57-11.451 0-22.304-3.734-30.587-10.516l-47.765-39.394L0 506.806v.587c0 1.753 1.502 3.244 3.276 3.244h605.491c1.741 0 3.232-1.491 3.232-3.255v-.544L383.693 323.4l-46.262 38.185z"/>
	</symbol>
	<symbol id="wishlist" viewBox="0 0 31.475 31.474">
		<path d="M31.434 12.136a8.228 8.228 0 0 0-15.697-4.185A8.229 8.229 0 0 0 .04 12.136s.161 8.102 15.798 16.253c15.635-8.151 15.596-16.253 15.596-16.253zM8.461 4.898a1.35 1.35 0 1 1 .003 2.7 1.35 1.35 0 0 1-.003-2.7zm-4.22 10.101a1.41 1.41 0 0 1-1.734-.979 9.046 9.046 0 0 1-.338-2.081c-.126-3.327 1.924-4.963 2.026-5.044a1.407 1.407 0 0 1 1.975.251c.474.609.367 1.48-.229 1.96-.073.061-.962.86-.956 2.57.003.461.069.988.234 1.587a1.41 1.41 0 0 1-.978 1.736z"/>
	</symbol>
	<symbol id="layers" viewBox="0 0 300 300">
		<path d="M149.996 0C67.157 0 .001 67.161.001 149.997S67.157 300 149.996 300s150.003-67.163 150.003-150.003S232.838 0 149.996 0zm84.756 201.789l-81.296 40.291a7.78 7.78 0 0 1-6.91.003L65.25 201.792a7.782 7.782 0 0 1 6.909-13.946l77.844 38.58 77.841-38.577c3.844-1.911 8.517-.335 10.426 3.514a7.781 7.781 0 0 1-3.518 10.426zm0-29.609l-81.296 40.291a7.78 7.78 0 0 1-6.91.003L65.25 172.183a7.782 7.782 0 0 1 6.909-13.946l77.844 38.58 77.841-38.577c3.844-1.917 8.517-.335 10.426 3.514a7.78 7.78 0 0 1-3.518 10.426zm0-29.608l-81.296 40.291a7.78 7.78 0 0 1-6.91.003L65.25 142.572a7.78 7.78 0 0 1-3.517-10.426c1.906-3.849 6.58-5.426 10.426-3.517l77.844 38.58 77.841-38.58a7.78 7.78 0 0 1 6.908 13.943zm0-31.066l-81.296 40.289a7.786 7.786 0 0 1-6.91 0L65.25 111.506a7.783 7.783 0 0 1 0-13.944l81.299-40.294a7.778 7.778 0 0 1 6.909 0l81.296 40.294a7.783 7.783 0 0 1 4.326 6.972 7.783 7.783 0 0 1-4.328 6.972z"/>
	</symbol>
	<symbol id="link" viewBox="0 0 300 300">
		<path d="M149.996 0C67.157 0 .001 67.161.001 149.997S67.157 300 149.996 300s150.003-67.163 150.003-150.003S232.835 0 149.996 0zm75.367 123.302l-36.686 36.686a20.927 20.927 0 0 1-14.895 6.17 20.94 20.94 0 0 1-14.895-6.168l-1.437-1.437-3.906 3.906 1.434 1.434c8.214 8.214 8.214 21.579 0 29.793l-36.681 36.686a20.929 20.929 0 0 1-14.898 6.17 20.933 20.933 0 0 1-14.9-6.173L74.634 216.5c-8.214-8.209-8.214-21.573-.003-29.79l36.689-36.684c3.979-3.979 9.269-6.17 14.898-6.17s10.916 2.192 14.898 6.17l1.432 1.432 3.906-3.906-1.432-1.432c-8.214-8.211-8.214-21.576-.005-29.79l36.689-36.686c3.981-3.981 9.272-6.173 14.898-6.173s10.916 2.192 14.898 6.17l13.868 13.873c8.207 8.209 8.207 21.576-.007 29.788z"/>
		<path d="M142.539 173.459l-7.093 7.093-11.002-10.999 7.093-7.093-1.432-1.432a5.478 5.478 0 0 0-3.89-1.611 5.475 5.475 0 0 0-3.893 1.611l-36.686 36.681a5.511 5.511 0 0 0 0 7.783l13.87 13.873c2.083 2.083 5.708 2.08 7.786.003l36.681-36.686a5.513 5.513 0 0 0 0-7.789l-1.434-1.434zM200.493 90.643a5.476 5.476 0 0 0-3.896-1.613 5.466 5.466 0 0 0-3.896 1.616l-36.686 36.684a5.517 5.517 0 0 0 .003 7.786l1.434 1.432 10.88-10.883 11.002 11.002-10.88 10.883 1.434 1.434c2.083 2.077 5.703 2.08 7.786-.003l36.684-36.681a5.515 5.515 0 0 0 0-7.786l-13.865-13.871z"/>
	</symbol>
	<symbol id="location" viewBox="0 0 430.114 430.114">
		<path d="M356.208 107.051c-1.531-5.738-4.64-11.852-6.94-17.205C321.746 23.704 261.611 0 213.055 0 148.054 0 76.463 43.586 66.905 133.427v18.355c0 .766.264 7.647.639 11.089 5.358 42.816 39.143 88.32 64.375 131.136 27.146 45.873 55.314 90.999 83.221 136.106 17.208-29.436 34.354-59.259 51.17-87.933 4.583-8.415 9.903-16.825 14.491-24.857 3.058-5.348 8.9-10.696 11.569-15.672 27.145-49.699 70.838-99.782 70.838-149.104v-20.262c.001-5.347-6.627-24.081-7-25.234zm-141.963 92.142c-19.107 0-40.021-9.554-50.344-35.939-1.538-4.2-1.414-12.617-1.414-13.388v-11.852c0-33.636 28.56-48.932 53.406-48.932 30.588 0 54.245 24.472 54.245 55.06 0 30.587-25.305 55.051-55.893 55.051z"/>
	</symbol>
	<symbol id="search" viewBox="0 0 615.52 615.52">
		<path d="M602.531 549.736l-184.31-185.368c26.679-37.72 42.528-83.729 42.528-133.548C460.75 103.35 357.997 0 231.258 0 104.518 0 1.765 103.35 1.765 230.82s102.753 230.82 229.493 230.82c49.53 0 95.271-15.944 132.78-42.777l184.31 185.366a38.117 38.117 0 0 0 27.102 11.291c9.812 0 19.62-3.77 27.083-11.291 14.963-15.041 14.963-39.452-.002-54.493zM355.9 319.763l-15.042 21.273-21.158 15.138c-26.083 18.658-56.667 28.526-88.442 28.526-84.365 0-152.995-69.035-152.995-153.88 0-84.846 68.63-153.88 152.995-153.88s152.996 69.034 152.996 153.88c.017 31.949-9.792 62.706-28.354 88.943z"/>
	</symbol>
	<symbol id="menu" viewBox="0 0 491.858 491.858">
		<path d="M233.632 217.239c0 9.055-7.339 16.395-16.395 16.395H16.395C7.339 233.635 0 226.294 0 217.239V16.396C0 7.341 7.339.001 16.395.001h200.842c9.056 0 16.395 7.34 16.395 16.395v200.843zM491.858 217.239c0 9.055-7.339 16.395-16.395 16.395H274.62c-9.056 0-16.395-7.34-16.395-16.395V16.396c0-9.055 7.339-16.395 16.395-16.395h200.842c9.056 0 16.395 7.34 16.395 16.395v200.843h.001zM233.632 475.462c0 9.055-7.339 16.395-16.395 16.395H16.395C7.339 491.858 0 484.517 0 475.462V274.619c0-9.055 7.339-16.395 16.395-16.395h200.842c9.056 0 16.395 7.34 16.395 16.395v200.843zM491.858 475.462c0 9.055-7.339 16.395-16.395 16.395H274.62c-9.056 0-16.395-7.34-16.395-16.395V274.619c0-9.055 7.339-16.395 16.395-16.395h200.842c9.056 0 16.395 7.34 16.395 16.395v200.843h.001z"/>
	</symbol>
	<symbol id="minus" viewBox="0 0 426.667 426.667">
		<path d="M106.667 192H320v42.667H106.667z"/>
		<path d="M213.333 0C95.513 0 0 95.513 0 213.333s95.513 213.333 213.333 213.333 213.333-95.513 213.333-213.333S331.154 0 213.333 0zm0 388.053c-96.495 0-174.72-78.225-174.72-174.72s78.225-174.72 174.72-174.72c96.446.117 174.602 78.273 174.72 174.72 0 96.496-78.224 174.72-174.72 174.72z"/>
	</symbol>
	<symbol id="mobile" viewBox="0 0 27.442 27.442">
		<path d="M19.494 0H7.948a1.997 1.997 0 0 0-1.997 1.999v23.446c0 1.102.892 1.997 1.997 1.997h11.546a1.998 1.998 0 0 0 1.997-1.997V1.999A1.999 1.999 0 0 0 19.494 0zm-8.622 1.214h5.7c.144 0 .261.215.261.481s-.117.482-.261.482h-5.7c-.145 0-.26-.216-.26-.482s.115-.481.26-.481zm2.85 24.255a1.275 1.275 0 1 1 0-2.55 1.275 1.275 0 0 1 0 2.55zm6.273-4.369H7.448V3.373h12.547V21.1z"/>
	</symbol>
	<symbol id="music" viewBox="0 0 475.071 475.071">
		<path d="M448.808 7.994C443.483 2.664 437.009 0 429.397 0c-3.046 0-5.715.383-7.994 1.143L183.861 74.232c-5.708 1.903-10.373 5.282-13.99 10.135-3.615 4.856-5.424 10.232-5.424 16.134v276.087c-16.562-7.426-34.833-11.139-54.818-11.139-8.564 0-17.749.999-27.55 2.994-9.806 1.995-19.657 5.041-29.552 9.134-9.9 4.093-18.083 9.853-24.556 17.271-6.471 7.423-9.705 15.899-9.705 25.413 0 9.521 3.234 17.987 9.705 25.413 6.473 7.419 14.655 13.179 24.556 17.271 9.899 4.093 19.75 7.136 29.552 9.134 9.801 1.995 18.986 2.991 27.55 2.991s17.746-.996 27.55-2.991c9.806-1.998 19.653-5.041 29.552-9.134 9.896-4.093 18.079-9.853 24.55-17.271 6.477-7.426 9.71-15.893 9.71-25.413v-202.42l219.271-67.665v153.317c-16.566-7.422-34.834-11.139-54.819-11.139-8.565 0-17.751.996-27.552 2.994-9.805 1.995-19.65 5.041-29.551 9.134-9.896 4.093-18.082 9.853-24.558 17.278-6.468 7.416-9.712 15.89-9.712 25.406 0 9.521 3.244 17.987 9.712 25.413 6.476 7.423 14.661 13.183 24.558 17.271 9.897 4.093 19.746 7.139 29.551 9.138 9.801 1.998 18.986 2.99 27.552 2.99 8.562 0 17.747-.992 27.548-2.99 9.802-1.999 19.65-5.045 29.554-9.138 9.897-4.089 18.076-9.849 24.551-17.271 6.479-7.426 9.709-15.893 9.709-25.413V27.401c-.003-7.612-2.659-14.08-7.997-19.407z"/>
	</symbol>
	<symbol id="plus" viewBox="0 0 304.223 304.223">
		<path d="M152.112 0C68.241 0 .008 68.244.008 152.114c0 83.865 68.233 152.109 152.103 152.109 83.865 0 152.103-68.244 152.103-152.109C304.215 68.244 235.977 0 152.112 0zm0 275.989c-68.32 0-123.891-55.565-123.891-123.875 0-68.326 55.571-123.891 123.891-123.891s123.891 55.565 123.891 123.891c0 68.31-55.577 123.875-123.891 123.875z"/>
		<path d="M221.922 139.186h-56.887V82.298c0-7.141-5.782-12.929-12.923-12.929s-12.929 5.782-12.929 12.929v56.887H82.296c-7.141 0-12.923 5.782-12.923 12.929 0 7.141 5.782 12.923 12.923 12.923h56.882v56.893c0 7.142 5.787 12.923 12.929 12.923 7.141 0 12.929-5.782 12.929-12.923v-56.893h56.882c7.142 0 12.929-5.782 12.929-12.923.004-7.147-5.784-12.928-12.925-12.928z"/>
	</symbol>
	<symbol id="send" viewBox="0 0 334.5 334.5">
		<path d="M332.797 13.699a5.003 5.003 0 0 0-5.404-.776L2.893 163.695a5.001 5.001 0 0 0-.096 9.023l91.833 45.068a5 5 0 0 0 5.196-.484l89.287-66.734-70.094 72.1a5 5 0 0 0-1.4 3.868l6.979 90.889a5 5 0 0 0 8.771 2.884l48.742-56.482 60.255 28.79a5 5 0 0 0 6.926-3.014L334.27 18.956a5 5 0 0 0-1.473-5.257z"/>
	</symbol>
	<symbol id="share" viewBox="0 0 473.932 473.932">
		<path d="M385.513 301.214c-27.438 0-51.64 13.072-67.452 33.09l-146.66-75.002c1.92-7.161 3.3-14.56 3.3-22.347 0-8.477-1.639-16.458-3.926-24.224l146.013-74.656c15.725 20.924 40.553 34.6 68.746 34.6 47.758 0 86.391-38.633 86.391-86.348C471.926 38.655 433.292 0 385.535 0c-47.65 0-86.326 38.655-86.326 86.326 0 7.809 1.381 15.229 3.322 22.412L155.892 183.74c-15.833-20.039-40.079-33.154-67.56-33.154-47.715 0-86.326 38.676-86.326 86.369s38.612 86.348 86.326 86.348c28.236 0 53.043-13.719 68.832-34.664l145.948 74.656c-2.287 7.744-3.947 15.79-3.947 24.289 0 47.693 38.676 86.348 86.326 86.348 47.758 0 86.391-38.655 86.391-86.348.022-47.736-38.611-86.37-86.369-86.37z"/>
	</symbol>
	<symbol id="basket" viewBox="0 0 475.084 475.085">
		<path d="M365.446 401.998c0 10.092 3.579 18.702 10.711 25.834 7.132 7.139 15.749 10.711 25.845 10.711 10.081 0 18.698-3.572 25.83-10.711 7.139-7.132 10.711-15.742 10.711-25.834s-3.568-18.702-10.711-25.841c-7.132-7.132-15.749-10.704-25.83-10.704-10.096 0-18.713 3.572-25.845 10.704-7.132 7.139-10.711 15.749-10.711 25.841zM469.658 78.51c-3.618-3.617-7.898-5.426-12.848-5.426H113.918c-.193-1.331-.621-3.756-1.287-7.277-.666-3.523-1.188-6.329-1.569-8.425-.383-2.087-1.093-4.611-2.142-7.561-1.047-2.952-2.284-5.286-3.711-6.995-1.425-1.718-3.328-3.189-5.708-4.43-2.378-1.233-5.092-1.853-8.136-1.853H18.276c-4.952 0-9.234 1.812-12.85 5.424C1.809 45.583 0 49.868 0 54.816s1.809 9.231 5.426 12.847c3.619 3.617 7.902 5.424 12.85 5.424h58.237l50.532 234.976c-.378.76-2.329 4.373-5.852 10.848-3.521 6.475-6.328 12.135-8.42 16.988-2.093 4.859-3.14 8.616-3.14 11.279 0 4.948 1.809 9.232 5.424 12.854 3.621 3.606 7.902 5.421 12.851 5.421h292.348c4.948 0 9.232-1.814 12.847-5.421 3.62-3.621 5.427-7.905 5.427-12.854 0-4.949-1.807-9.233-5.427-12.847-3.614-3.614-7.898-5.428-12.847-5.428h-262.66c4.57-9.138 6.854-15.222 6.854-18.268 0-1.909-.238-4.004-.715-6.283s-1.047-4.805-1.713-7.569c-.667-2.752-1.093-4.799-1.283-6.133l298.077-34.831c4.753-.575 8.658-2.614 11.703-6.14 3.046-3.518 4.565-7.562 4.565-12.133V91.363c-.002-4.948-1.806-9.231-5.426-12.853zM109.632 401.998c0 10.092 3.567 18.702 10.706 25.834 7.141 7.139 15.75 10.711 25.841 10.711 10.085 0 18.699-3.572 25.835-10.711 7.139-7.132 10.71-15.742 10.71-25.834s-3.568-18.702-10.71-25.841c-7.137-7.132-15.75-10.704-25.835-10.704-10.09 0-18.704 3.572-25.841 10.704-7.135 7.139-10.706 15.749-10.706 25.841z"/>
	</symbol>
	<symbol id="sign-in" viewBox="0 0 438.542 438.542">
		<path d="M414.41 60.676c-16.084-16.083-35.446-24.125-58.102-24.125h-91.357c-2.478 0-4.429.614-5.853 1.855-1.431 1.237-2.382 3.093-2.854 5.568-.479 2.474-.76 4.709-.853 6.707-.096 1.997-.051 4.521.144 7.565.186 3.046.281 4.949.281 5.713.571 1.524.767 2.81.571 3.855-.191 1.043.476 1.903 1.998 2.568 1.52.666 2.279 1.191 2.279 1.569 0 .378 1.096.662 3.285.855 2.19.192 3.289.284 3.289.284h89.083c12.56 0 23.312 4.471 32.258 13.422 8.952 8.945 13.422 19.696 13.422 32.261V319.77c0 12.563-4.47 23.312-13.422 32.258-8.945 8.948-19.698 13.421-32.258 13.421h-91.357c-2.478 0-4.436.62-5.853 1.855-1.43 1.242-2.382 3.094-2.857 5.564-.476 2.478-.763 4.716-.855 6.714-.092 1.995-.051 4.518.144 7.563.195 3.046.288 4.948.288 5.708 0 2.478.896 4.613 2.707 6.427 1.81 1.807 3.949 2.71 6.427 2.71h91.357c22.648 0 42.018-8.042 58.095-24.133 16.084-16.077 24.126-35.446 24.126-58.095V118.769c-.01-22.651-8.052-42.015-24.133-58.093z"/>
		<path d="M338.047 219.27c0-4.948-1.813-9.233-5.427-12.85L177.302 51.101c-3.616-3.612-7.895-5.424-12.847-5.424s-9.233 1.812-12.85 5.424c-3.615 3.617-5.424 7.904-5.424 12.85v82.226H18.274c-4.952 0-9.235 1.812-12.851 5.424C1.807 155.219 0 159.503 0 164.452v109.635c0 4.949 1.807 9.233 5.424 12.848 3.619 3.61 7.902 5.427 12.851 5.427h127.906v82.225c0 4.945 1.809 9.233 5.424 12.847 3.621 3.617 7.902 5.428 12.85 5.428 4.949 0 9.231-1.811 12.847-5.428L332.62 232.122c3.614-3.621 5.427-7.906 5.427-12.852z"/>
	</symbol>
	<symbol id="tags" viewBox="0 0 542.183 542.183">
		<path d="M432.544 310.636c0-9.897-3.521-18.559-10.564-25.984L217.844 80.8c-7.232-7.238-16.939-13.374-29.121-18.416-12.181-5.043-23.319-7.565-33.407-7.565H36.545c-9.896 0-18.464 3.619-25.694 10.848C3.616 72.9 0 81.466 0 91.365v118.771c0 10.088 2.519 21.219 7.564 33.404 5.046 12.185 11.187 21.792 18.417 28.837L230.12 476.799c7.043 7.043 15.608 10.564 25.694 10.564 9.898 0 18.562-3.521 25.984-10.564l140.186-140.47c7.039-7.045 10.56-15.604 10.56-25.693zM117.204 172.02c-7.139 7.138-15.752 10.709-25.841 10.709-10.085 0-18.698-3.571-25.837-10.709-7.139-7.139-10.705-15.749-10.705-25.837 0-10.089 3.566-18.702 10.705-25.837 7.139-7.139 15.752-10.71 25.837-10.71 10.089 0 18.702 3.571 25.841 10.71 7.135 7.135 10.707 15.749 10.707 25.837-.001 10.088-3.572 18.698-10.707 25.837z"/>
		<path d="M531.612 284.655L327.473 80.804c-7.23-7.238-16.939-13.374-29.122-18.417-12.177-5.042-23.313-7.564-33.402-7.564h-63.953c10.088 0 21.222 2.522 33.402 7.564 12.185 5.046 21.892 11.182 29.125 18.417L467.66 284.655c7.046 7.423 10.571 16.084 10.571 25.981 0 10.089-3.525 18.647-10.571 25.693l-134.191 134.19c5.718 5.9 10.759 10.182 15.133 12.847 4.38 2.666 9.996 3.998 16.844 3.998 9.903 0 18.565-3.521 25.98-10.564l140.186-140.47c7.046-7.046 10.571-15.604 10.571-25.693-.004-9.898-3.525-18.559-10.571-25.982z"/>
	</symbol>
	<symbol id="translate" viewBox="0 0 511.999 511.999">
		<path d="M436.921 75.079C389.413 27.571 326.51 1.066 259.464.18c-1.168-.106-2.327-.18-3.465-.18s-2.297.074-3.465.18c-67.046.885-129.949 27.39-177.457 74.898C26.752 123.405.138 187.657.138 255.999s26.614 132.595 74.94 180.921c47.508 47.508 110.41 74.013 177.457 74.898 1.168.107 2.327.18 3.464.18 1.138 0 2.297-.074 3.465-.18 67.047-.885 129.95-27.39 177.457-74.898 48.325-48.325 74.939-112.577 74.939-180.921.001-68.342-26.613-132.594-74.939-180.92zM96.586 96.587c27.181-27.181 60.086-46.552 95.992-57.018-8.093 9.317-15.96 20.033-23.282 31.908-9.339 15.146-17.425 31.562-24.196 48.919H75.865a228.731 228.731 0 0 1 20.721-23.809zm-40.1 54.226h78.373c-8.15 28.522-12.97 58.908-14.161 89.978H31.071c2.105-31.804 10.794-62.326 25.415-89.978zm.001 210.373c-14.623-27.652-23.312-58.174-25.417-89.978h89.627c1.191 31.071 6.011 61.457 14.161 89.978H56.487zm40.1 54.226a228.284 228.284 0 0 1-20.722-23.809h69.236c6.771 17.357 14.856 33.773 24.196 48.919 7.322 11.875 15.189 22.591 23.282 31.908-35.905-10.466-68.81-29.837-95.992-57.018zm144.203 59.91c-12.671-8.29-29.685-24.946-45.605-50.764-6.385-10.354-12.124-21.382-17.197-32.954h62.801v83.718zm0-114.136h-74.195c-8.888-28.182-14.163-58.651-15.459-89.978h89.654v89.978zm0-120.395h-89.654c1.295-31.327 6.57-61.797 15.459-89.978h74.195v89.978zm0-120.396h-62.801c5.073-11.572 10.812-22.6 17.197-32.954 15.919-25.818 32.934-42.475 45.605-50.764v83.718zm214.722 30.418c14.623 27.653 23.311 58.174 25.416 89.978H391.3c-1.191-31.071-6.011-61.457-14.161-89.978h78.373zm-40.099-54.226a228.731 228.731 0 0 1 20.721 23.809h-69.235c-6.771-17.357-14.856-33.773-24.196-48.919-7.322-11.875-15.188-22.591-23.282-31.908 35.905 10.466 68.81 29.837 95.992 57.018zm-144.205-59.91c12.671 8.29 29.685 24.946 45.605 50.764 6.385 10.354 12.124 21.382 17.197 32.954h-62.801V36.677zm0 114.136h74.195c8.889 28.182 14.164 58.653 15.459 89.978h-89.654v-89.978zm89.653 120.395c-1.295 31.327-6.57 61.797-15.459 89.978h-74.195v-89.978h89.654zm-89.653 204.114v-83.718h62.801c-5.073 11.572-10.812 22.6-17.197 32.954-15.919 25.819-32.933 42.474-45.604 50.764zm144.205-59.909c-27.182 27.181-60.086 46.551-95.992 57.018 8.093-9.317 15.96-20.033 23.282-31.908 9.339-15.146 17.425-31.562 24.196-48.919h69.235a228.613 228.613 0 0 1-20.721 23.809zm40.099-54.227h-78.373c8.15-28.521 12.971-58.907 14.161-89.978h89.627c-2.105 31.804-10.794 62.326-25.415 89.978z"/>
	</symbol>
	<symbol id="user" viewBox="0 0 438.529 438.529">
		<path d="M219.265 219.267c30.271 0 56.108-10.71 77.518-32.121 21.412-21.411 32.12-47.248 32.12-77.515 0-30.262-10.708-56.1-32.12-77.516C275.366 10.705 249.528 0 219.265 0S163.16 10.705 141.75 32.115c-21.414 21.416-32.121 47.253-32.121 77.516 0 30.267 10.707 56.104 32.121 77.515 21.416 21.411 47.251 32.121 77.515 32.121z"/>
		<path d="M419.258 335.036c-.668-9.609-2.002-19.985-3.997-31.121-1.999-11.136-4.524-21.457-7.57-30.978-3.046-9.514-7.139-18.794-12.278-27.836-5.137-9.041-11.037-16.748-17.703-23.127-6.666-6.377-14.801-11.465-24.406-15.271-9.617-3.805-20.229-5.711-31.84-5.711-1.711 0-5.709 2.046-11.991 6.139a2716.072 2716.072 0 0 1-21.266 13.708c-7.898 5.037-18.182 9.609-30.834 13.695-12.658 4.093-25.361 6.14-38.118 6.14-12.752 0-25.456-2.047-38.112-6.14-12.655-4.086-22.936-8.658-30.835-13.695a2784.143 2784.143 0 0 1-21.267-13.708c-6.283-4.093-10.278-6.139-11.991-6.139-11.61 0-22.222 1.906-31.833 5.711-9.613 3.806-17.749 8.898-24.412 15.271-6.661 6.379-12.562 14.086-17.699 23.127-5.137 9.042-9.229 18.326-12.275 27.836-3.045 9.521-5.568 19.842-7.566 30.978-2 11.136-3.332 21.505-3.999 31.121a427.742 427.742 0 0 0-.998 29.554c0 22.836 6.949 40.875 20.842 54.104 13.896 13.224 32.36 19.835 55.39 19.835h249.533c23.028 0 41.49-6.611 55.388-19.835 13.901-13.229 20.845-31.265 20.845-54.104-.002-10.088-.334-19.938-1.008-29.554z"/>
	</symbol>
	<symbol id="zoom-in" viewBox="0 0 299.998 299.998">
		<path d="M139.414 96.193c-22.673 0-41.056 18.389-41.056 41.062 0 22.678 18.383 41.062 41.056 41.062 22.678 0 41.059-18.383 41.059-41.062.001-22.673-18.379-41.062-41.059-41.062zm19.841 50.778h-12.06v12.06a7.78 7.78 0 0 1-7.781 7.781 7.78 7.78 0 0 1-7.781-7.781v-12.06h-12.06a7.78 7.78 0 0 1-7.781-7.781 7.78 7.78 0 0 1 7.781-7.781h12.06v-12.063a7.78 7.78 0 0 1 7.781-7.781 7.78 7.78 0 0 1 7.781 7.781v12.063h12.06a7.78 7.78 0 0 1 7.781 7.781 7.779 7.779 0 0 1-7.781 7.781z"/>
		<path d="M149.997 0C67.157 0 .001 67.158.001 149.995s67.156 150.003 149.995 150.003 150-67.163 150-150.003S232.836 0 149.997 0zm75.441 221.254c-2.371 2.376-5.48 3.561-8.59 3.561s-6.217-1.185-8.593-3.561l-34.145-34.147a60.43 60.43 0 0 1-34.697 10.896c-33.548 0-60.742-27.196-60.742-60.744s27.194-60.742 60.742-60.742 60.744 27.194 60.744 60.739a60.434 60.434 0 0 1-9.28 32.256l34.56 34.562c4.748 4.743 4.748 12.438.001 17.18z"/>
	</symbol>
</svg>